<?xml version="1.0" encoding="utf-8"?>
<!-- Generator: Adobe Illustrator 21.1.0, SVG Export Plug-In . SVG Version: 6.00 Build 0)  -->
<svg version="1.1" id="Слой_1" xmlns="http://www.w3.org/2000/svg" xmlns:xlink="http://www.w3.org/1999/xlink" x="0px" y="0px"
	 viewBox="0 0 400 156" style="enable-background:new 0 0 400 156;" xml:space="preserve">
<style type="text/css">
	.st0{fill:#FFFFFF;}
</style>
<g>
	<g>
		<polygon class="st0" points="137.8,59.3 137.8,47.1 161.3,47.1 161.3,35.7 137.8,35.7 137.8,0 173.4,0 173.4,12.1 149.9,12.1 
			149.9,23.6 173.4,23.6 173.4,59.3 		"/>
		<path class="st0" d="M179,17.7v41.6h17.7V77h12.1V17.7H179z M196.7,47.1h-5.6V29.8h5.6V47.1z"/>
		<polygon class="st0" points="214.3,59.3 214.3,17.7 226.5,17.7 226.5,47.1 232,47.1 232,17.7 244.1,17.7 244.1,59.3 		"/>
		<path class="st0" d="M249.7,59.3V35.4h17.7v-5.6h-17.7V17.7h29.8v41.6L249.7,59.3L249.7,59.3z M261.8,41.6v5.6h5.6v-5.6H261.8z"/>
		<path class="st0" d="M297.2,59.3H285V17.7h23.9v12.1h-11.8L297.2,59.3L297.2,59.3z"/>
		<path class="st0" d="M344.3,41.6l0-23.9h-29.8v41.6l29.8,0V47.1h-17.7v-5.6C326.6,41.6,344.3,41.6,344.3,41.6z M326.6,29.8h5.6
			v5.6h-5.6V29.8z"/>
		<path class="st0" d="M231.7,156h-17.4V71H257v17.4h-25.3v16.4H257v17.4h-25.3V156z"/>
		<path class="st0" d="M264.9,156v-34.3h25.3v-8h-25.3V96.3h42.7V156L264.9,156L264.9,156z M282.2,130.6v8h8v-8H282.2z"/>
		<polygon class="st0" points="358.2,156 315.5,156 315.5,138.6 340.9,138.6 340.9,130.6 315.5,130.6 315.5,96.3 358.2,96.3 
			358.2,113.7 332.9,113.7 332.9,121.7 358.2,121.7 		"/>
		<polygon class="st0" points="366.2,156 366.2,79.5 383.6,79.5 383.6,96.3 400.5,96.3 400.5,113.7 383.6,113.7 383.6,138.6 
			400.5,138.6 400.5,156 		"/>
	</g>
	<rect x="-0.5" class="st0" width="115.8" height="115.8"/>
	<rect x="-0.5" y="141.9" class="st0" width="195.2" height="14.1"/>
</g>
</svg>
